<svg xmlns="http://www.w3.org/2000/svg" viewBox="0 0 130.22 47.71"><defs><style>.cls-1{fill:#00a499;}</style></defs><title>Datový zdroj 29</title><g id="Vrstva_2" data-name="Vrstva 2"><g id="Vrstva_1-2" data-name="Vrstva 1"><rect class="cls-1" x="0.38" y="18.68" width="1.6" height="18.68"/><rect class="cls-1" x="18.82" y="23.79" width="1.6" height="18.69"/><rect class="cls-1" x="24.97" y="18.68" width="1.6" height="18.68"/><rect class="cls-1" x="12.67" y="28.93" width="1.6" height="18.68"/><rect class="cls-1" x="6.52" y="23.79" width="1.6" height="18.68"/><path class="cls-1" d="M8.07.19,5.37,10.26H2.71L0,.19H1.94L4.07,8.76,6.19.19Z"/><path class="cls-1" d="M17.11,7.5a2.64,2.64,0,0,1-.94,2.13,3.76,3.76,0,0,1-2.53.79,7.13,7.13,0,0,1-1.84-.25,6.53,6.53,0,0,1-1.71-.7L10.84,8a7.16,7.16,0,0,0,1.45.64,4.72,4.72,0,0,0,1.38.21,1.89,1.89,0,0,0,1.14-.3,1.06,1.06,0,0,0,.4-.88,1,1,0,0,0-.34-.77A5.64,5.64,0,0,0,13.34,6,11,11,0,0,1,12,5.4a3.93,3.93,0,0,1-.7-.5A2.53,2.53,0,0,1,10.67,4a2.75,2.75,0,0,1-.22-1.13,2.57,2.57,0,0,1,.9-2A3.47,3.47,0,0,1,13.73,0a6.36,6.36,0,0,1,1.68.23A6.91,6.91,0,0,1,17,.9L16.3,2.41A8.1,8.1,0,0,0,15,1.85a4.42,4.42,0,0,0-1.22-.19,1.53,1.53,0,0,0-1,.3,1,1,0,0,0-.37.78,1.08,1.08,0,0,0,.35.78,6.58,6.58,0,0,0,1.55.87c.57.26,1,.46,1.26.62a3.41,3.41,0,0,1,.69.5,2.46,2.46,0,0,1,.68.88A2.82,2.82,0,0,1,17.11,7.5Z"/><path class="cls-1" d="M20,.19h3.31a4,4,0,0,1,2.44.65,2.16,2.16,0,0,1,.89,1.84,2.38,2.38,0,0,1-.4,1.38,2.52,2.52,0,0,1-1.12.9,2.8,2.8,0,0,1,1.43.88A2.25,2.25,0,0,1,27,7.33a2.64,2.64,0,0,1-.94,2.15,3.82,3.82,0,0,1-2.52.78H20ZM24.7,3a1.1,1.1,0,0,0-.4-.92,2.09,2.09,0,0,0-1.22-.29h-1.2V4.32h1.2A1.82,1.82,0,0,0,24.29,4,1.25,1.25,0,0,0,24.7,3Zm.4,4.26a1.2,1.2,0,0,0-.46-1.06,2.42,2.42,0,0,0-1.45-.34H21.88V8.71h1.4a2.11,2.11,0,0,0,1.37-.37A1.34,1.34,0,0,0,25.1,7.23Z"/><path class="cls-1" d="M42.86,1.51v8.72H41.31V1.51h-3V.16h7.62V1.51Z"/><path class="cls-1" d="M50.12,8.9h4.55v1.33H48.55V.16h6.12V1.51H50.12V4.45H54V5.8H50.12Z"/><path class="cls-1" d="M61.33,10.39a3.74,3.74,0,0,1-3.1-1.34,6.14,6.14,0,0,1-1.06-3.9,5.83,5.83,0,0,1,1.11-3.78A3.74,3.74,0,0,1,61.35,0a4.94,4.94,0,0,1,2.83.81L63.46,2a4.09,4.09,0,0,0-1.05-.48,3.35,3.35,0,0,0-1-.16,2.19,2.19,0,0,0-1.94.94,4.9,4.9,0,0,0-.66,2.81,5.35,5.35,0,0,0,.64,2.9,2.19,2.19,0,0,0,2,.95,3.8,3.8,0,0,0,1.1-.15,5,5,0,0,0,1.16-.56l.66,1.15a4.92,4.92,0,0,1-1.41.71A5.18,5.18,0,0,1,61.33,10.39Z"/><path class="cls-1" d="M68.6,5.66v4.57H67V.16H68.6V4.31h3.69V.16h1.57V10.23H72.29V5.66Z"/><path class="cls-1" d="M83.77,10.23H81.86l-3.31-8v8H77.16V.16h1.9l3.33,8.05v-8h1.38Z"/><path class="cls-1" d="M93.29,8.9v1.33h-6.7V8.9h2.58V1.51H86.64V.16h6.61V1.51H90.71V8.9Z"/><path class="cls-1" d="M99.69,10.39a3.73,3.73,0,0,1-3.1-1.34,6.14,6.14,0,0,1-1.07-3.9,5.83,5.83,0,0,1,1.11-3.78A3.77,3.77,0,0,1,99.71,0a5,5,0,0,1,2.83.81L101.82,2a4.09,4.09,0,0,0-1-.48,3.4,3.4,0,0,0-1-.16,2.22,2.22,0,0,0-1.95.94,5,5,0,0,0-.65,2.81,5.26,5.26,0,0,0,.64,2.9,2.18,2.18,0,0,0,2,.95,3.8,3.8,0,0,0,1.1-.15A5,5,0,0,0,102,8.29l.67,1.15a5.05,5.05,0,0,1-1.41.71A5.18,5.18,0,0,1,99.69,10.39Z"/><path class="cls-1" d="M112.64,10.23H111l-.75-2.67h-3.47l-.74,2.67h-1.54L107.48.16h2.22Zm-4.07-9-1.39,5h2.75Z"/><path class="cls-1" d="M116.9,8.9h4.73v1.33h-6.3V.16h1.57Z"/><path class="cls-1" d="M42.12,27.67a1.8,1.8,0,0,0,1.36-.5A1.91,1.91,0,0,0,44,25.75V18.82h1.52v6.93a3.19,3.19,0,0,1-.93,2.4,3.34,3.34,0,0,1-2.44.9,3.46,3.46,0,0,1-2.49-.9,3.19,3.19,0,0,1-.94-2.4V18.82h1.57v6.93a2,2,0,0,0,.49,1.42A1.81,1.81,0,0,0,42.12,27.67Z"/><path class="cls-1" d="M55.39,28.9H53.47l-3.31-8v8H48.78V18.82h1.89L54,26.87v-8h1.39Z"/><path class="cls-1" d="M64.91,27.56V28.9h-6.7V27.56h2.58V20.17H58.25V18.82h6.61v1.35H62.33v7.39Z"/><path class="cls-1" d="M74.48,18.82,71.66,28.9H69.44L66.62,18.82h1.64l2.31,8.85,2.32-8.85Z"/><path class="cls-1" d="M78.65,27.56H83.2V28.9H77.07V18.82H83.2v1.35H78.65v2.94h3.87v1.35H78.65Z"/><path class="cls-1" d="M87.84,24.77V28.9H86.27V18.82h3.44a3.66,3.66,0,0,1,2.45.78,2.67,2.67,0,0,1,.91,2.14,3,3,0,0,1-.52,1.8,2.81,2.81,0,0,1-1.5,1l2.39,4.34H91.67l-2.19-4.13Zm3.64-3A1.52,1.52,0,0,0,91,20.59a1.94,1.94,0,0,0-1.32-.42H87.84v3.25h1.85A1.86,1.86,0,0,0,91,23,1.53,1.53,0,0,0,91.48,21.77Z"/><path class="cls-1" d="M102.41,26.21a2.55,2.55,0,0,1-.91,2.06,3.72,3.72,0,0,1-2.48.78,6.59,6.59,0,0,1-1.78-.25,5.86,5.86,0,0,1-1.65-.7l.67-1.23a6.13,6.13,0,0,0,1.43.64,4.59,4.59,0,0,0,1.37.2,2.09,2.09,0,0,0,1.3-.36,1.32,1.32,0,0,0,.09-1.94,5.29,5.29,0,0,0-1.64-.93,12.79,12.79,0,0,1-1.26-.61,3.79,3.79,0,0,1-.69-.48,2.47,2.47,0,0,1-.88-2,2.51,2.51,0,0,1,.87-2,3.37,3.37,0,0,1,2.28-.76,6.33,6.33,0,0,1,1.62.22,7.07,7.07,0,0,1,1.54.64l-.62,1.23a6.52,6.52,0,0,0-1.31-.56A4.71,4.71,0,0,0,99.15,20a1.84,1.84,0,0,0-1.18.35,1.25,1.25,0,0,0,0,1.83,5.7,5.7,0,0,0,1.65.94c.56.26,1,.47,1.25.62a3.37,3.37,0,0,1,.68.47,2.72,2.72,0,0,1,.69.89A2.75,2.75,0,0,1,102.41,26.21Z"/><path class="cls-1" d="M111.53,27.56V28.9h-6.7V27.56h2.58V20.17h-2.53V18.82h6.61v1.35H109v7.39Z"/><path class="cls-1" d="M117.89,20.17V28.9h-1.56V20.17h-3V18.82h7.62v1.35Z"/><path class="cls-1" d="M127,25V28.9h-1.57V25l-3.22-6.17h1.68l2.37,4.71,2.35-4.71h1.58Z"/><path class="cls-1" d="M45.86,42.57a6.36,6.36,0,0,1-1,3.82,3.68,3.68,0,0,1-5.63,0,6.72,6.72,0,0,1-.94-3.94,6.39,6.39,0,0,1,1-3.82,3.65,3.65,0,0,1,5.62,0A6.72,6.72,0,0,1,45.86,42.57Zm-5.92-.1a6.26,6.26,0,0,0,.52,2.93,1.74,1.74,0,0,0,1.62.93,1.77,1.77,0,0,0,1.65-.92,6,6,0,0,0,.52-2.84,6.27,6.27,0,0,0-.52-2.9,1.91,1.91,0,0,0-3.28,0A6,6,0,0,0,39.94,42.47Z"/><path class="cls-1" d="M50.61,43.28v4.28H49.06V37.48h6.11v1.35H50.61v3.1h3.87v1.35Z"/><path class="cls-1" d="M70,42.57a6.36,6.36,0,0,1-1,3.82,3.68,3.68,0,0,1-5.63,0,6.72,6.72,0,0,1-.94-3.94,6.32,6.32,0,0,1,1-3.82,3.65,3.65,0,0,1,5.62,0A6.72,6.72,0,0,1,70,42.57Zm-5.93-.1a6.24,6.24,0,0,0,.53,2.93,1.72,1.72,0,0,0,1.62.93,1.76,1.76,0,0,0,1.64-.92,5.92,5.92,0,0,0,.52-2.84,6.14,6.14,0,0,0-.52-2.9,1.9,1.9,0,0,0-3.27,0A6,6,0,0,0,64.09,42.47Z"/><path class="cls-1" d="M78.94,44.87A2.59,2.59,0,0,1,78,46.94a3.74,3.74,0,0,1-2.47.77,6.66,6.66,0,0,1-1.79-.25,6.11,6.11,0,0,1-1.65-.69l.67-1.23a6.26,6.26,0,0,0,1.43.63,4.65,4.65,0,0,0,1.37.21A2.12,2.12,0,0,0,76.89,46,1.34,1.34,0,0,0,77,44.07a5.74,5.74,0,0,0-1.65-.93,12.79,12.79,0,0,1-1.26-.61,3.39,3.39,0,0,1-.68-.48,2.65,2.65,0,0,1-.67-.89,2.6,2.6,0,0,1-.22-1.1,2.49,2.49,0,0,1,.87-2,3.34,3.34,0,0,1,2.29-.77,6.19,6.19,0,0,1,1.61.22,6.87,6.87,0,0,1,1.54.64l-.62,1.23a6.38,6.38,0,0,0-1.3-.55,4.4,4.4,0,0,0-1.22-.18A1.74,1.74,0,0,0,74.5,39a1.14,1.14,0,0,0-.43.94,1.2,1.2,0,0,0,.38.88,6,6,0,0,0,1.66.94c.56.26,1,.47,1.24.62a4.36,4.36,0,0,1,.69.47,2.52,2.52,0,0,1,.9,2Z"/><path class="cls-1" d="M85.27,38.83v8.73H83.71V38.83h-3V37.48H88.3v1.35Z"/><path class="cls-1" d="M92.5,43.44v4.12H90.93V37.48h3.44a3.66,3.66,0,0,1,2.45.78,2.69,2.69,0,0,1,.91,2.14,3,3,0,0,1-.53,1.8,2.74,2.74,0,0,1-1.5,1l2.4,4.34H96.33l-2.2-4.12Zm3.64-3a1.5,1.5,0,0,0-.48-1.19,1.89,1.89,0,0,0-1.31-.42H92.5v3.25h1.85a1.9,1.9,0,0,0,1.32-.42A1.6,1.6,0,0,0,96.14,40.44Z"/><path class="cls-1" d="M108.22,47.56h-1.6l-.75-2.68H102.4l-.75,2.68h-1.53l2.93-10.08h2.23Zm-4.08-9-1.38,5h2.75Z"/><path class="cls-1" d="M116.89,37.48l-2.81,10.08h-2.23L109,37.48h1.63L113,46.33l2.31-8.85Z"/><path class="cls-1" d="M125.82,47.56h-1.6l-.75-2.68H120l-.75,2.68h-1.53l2.93-10.08h2.23Zm-4.08-9-1.38,5h2.75Z"/></g></g></svg>